<svg width="60" height="60" viewBox="0 0 60 60" fill="none" xmlns="http://www.w3.org/2000/svg">
<path d="M21.8553 29.0149C20.7149 27.8704 20.7149 26.003 21.8553 24.8584C22.9358 23.7139 24.7965 23.7139 25.937 24.8584L45.1447 44.0146C46.2851 45.1591 46.2851 46.9663 45.1447 48.1109C44.0042 49.2554 42.1435 49.3157 41.003 48.1711L21.8553 29.0149Z" fill="black"/>
<path d="M33.8485 18.4931C33.0606 17.9539 32.0303 18.1935 32.0303 17.4747V17.4147C32.0303 16.6959 33.0606 16.9355 33.8485 16.4562C34.0909 16.2765 34.3333 16.0369 34.5152 15.7972C35 14.9585 34.7576 14 35.4848 14H35.5455C36.2121 14 36.0909 14.9585 36.5152 15.7373C36.697 16.0369 36.9394 16.3364 37.303 16.5161C38.0909 16.8756 39 16.7558 39 17.4147V17.4747C39 18.2535 37.7273 17.894 36.8788 18.6728L36.8182 18.7327L36.7576 18.7926C35.9697 19.6313 36.3333 20.8894 35.5455 20.8894H35.4848C34.8182 20.8894 34.9394 19.9908 34.5758 19.2719C34.3939 18.9124 34.1515 18.6728 33.8485 18.4931ZM17.8485 30.894C14.7576 29.0369 11 29.8157 11 27.0599V27C11 24.2442 14.697 24.9631 17.7273 23.2258C18.8788 22.5668 19.9091 21.4885 20.5152 20.3502C22.0303 17.4147 21.4242 14 24.1515 14C26.7576 14 26.3333 17.1152 27.6061 19.9908C28.2121 21.3088 29.2424 22.447 30.5152 23.1659C33.5455 24.9631 37.303 24.2442 37.303 27V27.0599C37.303 29.7558 33.7273 29.0968 30.7576 30.7143C29.4242 31.4332 28.3939 32.5714 27.7273 33.8894C26.2727 36.765 26.8182 40 24.1515 40C21.5455 40 22.0303 36.765 20.6364 33.8894C20.0303 32.6912 19.0606 31.6129 17.8485 30.894Z" fill="#7805A7"/>
</svg>
